<?xml version="1.0" encoding="iso-8859-1"?>
<!-- Generator: Adobe Illustrator 19.0.0, SVG Export Plug-In . SVG Version: 6.00 Build 0)  -->
<svg version="1.1" id="Capa_1" xmlns="http://www.w3.org/2000/svg" xmlns:xlink="http://www.w3.org/1999/xlink" x="0px" y="0px"
	 viewBox="0 0 512.001 512.001" style="enable-background:new 0 0 512.001 512.001;" xml:space="preserve">
<g>
	<g>
		<path d="M326.564,380.314c-2.403-3.375-7.086-4.166-10.46-1.763c-18.105,12.885-38.355,25.437-60.245,37.343
			c-34.563-18.763-64.419-38.755-89.356-59.789l57.274-57.274c2.929-2.929,2.929-7.678,0-10.607c-2.93-2.929-7.678-2.929-10.608,0
			l-57.971,57.971c-13.961-12.744-26.158-25.848-36.534-39.277C91.46,271.709,77.677,235.743,77.7,200.019
			c0.003-5.152,0.301-10.331,0.887-15.392c0.477-4.115-2.474-7.837-6.588-8.313c-4.11-0.481-7.836,2.474-8.313,6.588
			c-0.651,5.628-0.983,11.385-0.986,17.108c-0.022,34.863,12.776,93.631,81.835,156.849l-41.767,41.767l-39.836-7.335
			c-4.169-0.769-8.44,0.561-11.433,3.556L3.773,442.572c-3.391,3.392-4.612,8.343-3.188,12.923c1.424,4.58,5.24,7.964,9.957,8.833
			l31.356,5.774l5.775,31.356c0.868,4.717,4.253,8.532,8.832,9.958c1.265,0.394,2.557,0.585,3.838,0.585
			c3.357,0,6.631-1.318,9.086-3.773l47.725-47.725c2.992-2.993,4.322-7.265,3.557-11.428c0,0,0-0.001,0-0.002l-7.336-39.838
			l42.445-42.444c25.09,21.272,56.702,42.927,96.501,64.24c1.106,0.592,2.323,0.888,3.541,0.888c1.219,0,2.439-0.297,3.545-0.891
			c23.804-12.769,45.805-26.312,65.395-40.254C328.177,388.372,328.966,383.689,326.564,380.314z M61.69,494.751l-5.262-28.573
			l12.376-12.376c2.929-2.929,2.929-7.678,0-10.607c-2.93-2.929-7.678-2.929-10.608,0L45.82,455.571l-28.573-5.261l44.066-44.065
			l28.573,5.261l-9.068,9.068c-2.929,2.929-2.929,7.678,0,10.607c1.465,1.464,3.385,2.197,5.304,2.197s3.839-0.732,5.304-2.197
			l9.068-9.068l5.262,28.573L61.69,494.751z"/>
	</g>
</g>
<g>
	<g>
		<path d="M511.948,6.727c-0.031-0.298-0.073-0.593-0.14-0.885c-0.03-0.132-0.07-0.261-0.107-0.391
			c-0.074-0.26-0.159-0.515-0.261-0.766c-0.053-0.132-0.11-0.261-0.171-0.391c-0.12-0.254-0.258-0.499-0.407-0.74
			c-0.048-0.077-0.079-0.16-0.13-0.236c-0.039-0.059-0.084-0.112-0.125-0.169c-0.044-0.061-0.088-0.122-0.134-0.182
			c-0.199-0.262-0.41-0.511-0.637-0.741c-0.009-0.009-0.016-0.02-0.025-0.029c-0.019-0.018-0.04-0.032-0.059-0.05
			c-0.251-0.246-0.514-0.476-0.793-0.682c-0.002-0.001-0.003-0.003-0.005-0.004c-0.278-0.205-0.57-0.384-0.871-0.547
			c-0.039-0.021-0.076-0.043-0.115-0.063c-0.291-0.152-0.591-0.283-0.899-0.394c-0.045-0.016-0.09-0.031-0.135-0.047
			c-0.316-0.108-0.637-0.199-0.965-0.265c-0.016-0.003-0.032-0.005-0.047-0.008c-0.341-0.066-0.686-0.109-1.034-0.127
			c-0.008,0-0.016-0.002-0.023-0.002c-0.344-0.017-0.689-0.006-1.035,0.025c-0.034,0.003-0.068,0.006-0.102,0.009
			c-0.341,0.035-0.681,0.094-1.019,0.177c-0.024,0.006-0.048,0.013-0.072,0.02c-0.347,0.089-0.691,0.198-1.029,0.34L437.385,27.47
			c-2.904,1.216-4.729,4.115-4.589,7.253c0.001,0.032-0.004,0.063-0.002,0.096v0.001l0.022,0.377l1.817,31.563l-31.384,31.384
			c-15.82-11.859-34.319-18.064-54.217-18.064c-0.02,0-0.041,0-0.061,0c-49.553,0.031-80.408,30.084-92.927,45.421
			c-12.5-15.32-43.291-45.305-92.799-45.305c-0.024,0-0.053,0-0.077,0c-40.578,0.025-75.716,26.825-91.704,69.941
			c-1.44,3.884,0.541,8.2,4.425,9.64c3.883,1.44,8.2-0.541,9.64-4.425c13.959-37.646,42.987-60.135,77.649-60.156
			c0.024,0,0.04,0,0.064,0c56.523,0,86.134,46.443,86.419,46.899c1.362,2.207,3.773,3.546,6.367,3.553c0.006,0,0.012,0,0.018,0
			c2.587,0,4.997-1.34,6.367-3.536c0.293-0.47,29.987-46.997,86.568-47.032c0.018,0,0.032,0,0.05,0
			c15.832,0,30.625,4.751,43.462,13.819l-53.337,53.336c-2.929,2.929-2.929,7.678,0,10.607c1.465,1.464,3.385,2.197,5.304,2.197
			c1.919,0,3.839-0.732,5.304-2.197l54.18-54.179c19.323,19.704,30.383,49.205,30.363,81.113
			c-0.023,37.824-16.117,96.154-92.654,159.235c-3.196,2.635-3.651,7.361-1.017,10.558c1.482,1.799,3.629,2.73,5.791,2.73
			c1.68,0,3.369-0.561,4.767-1.712c81.044-66.798,98.088-129.752,98.113-170.801c0.022-35.866-12.638-69.238-34.756-91.73
			l30.691-30.691l31.937,1.838c0.145,0.008,0.289,0.012,0.433,0.012c3.007,0,5.743-1.803,6.916-4.603l26.898-64.217
			c0.101-0.24,0.169-0.486,0.244-0.732c0.023-0.077,0.057-0.154,0.078-0.235c0.212-0.795,0.288-1.607,0.236-2.409
			C511.978,6.921,511.958,6.825,511.948,6.727z M448.076,39.257l0.917-0.384l23.272-9.743l-23.421,23.421L448.076,39.257z
			 M472.742,63.924l-13.293-0.765l17.634-17.633c0.002-0.002,0.003-0.003,0.005-0.005l5.787-5.787L472.742,63.924z"/>
	</g>
</g>
</svg>
